<svg id="Layer_1" data-name="Layer 1" xmlns="http://www.w3.org/2000/svg" viewBox="0 0 233.67 82.67"><defs><style>.cls-1{fill:#3d4543;}.cls-2{fill:#656636;}</style></defs><title>ring-co_TUC</title><path class="cls-1" d="M142.3,61.13h1.44L143,66.72h0a3.16,3.16,0,0,1,1.23-.94,3.81,3.81,0,0,1,1.58-.34,3.71,3.71,0,0,1,1.54.3,3,3,0,0,1,1.09.84,3.07,3.07,0,0,1,.6,1.26,4.53,4.53,0,0,1,.06,1.57,5.07,5.07,0,0,1-.5,1.57,4.66,4.66,0,0,1-.94,1.26,4.17,4.17,0,0,1-1.33.84,4.24,4.24,0,0,1-1.64.31,3.12,3.12,0,0,1-1.44-.34,2.28,2.28,0,0,1-1-.94h0l-.14,1.08h-1.44Zm2.4,10.92a2.86,2.86,0,0,0,1.06-.2,2.89,2.89,0,0,0,.85-.55,2.78,2.78,0,0,0,.62-.83,3.35,3.35,0,0,0,.32-1.06,2.88,2.88,0,0,0,0-1.06,2,2,0,0,0-.38-.83,2,2,0,0,0-.71-.54,2.43,2.43,0,0,0-1-.2,2.8,2.8,0,0,0-2.54,1.57,3.42,3.42,0,0,0-.31,1.06,2.88,2.88,0,0,0,0,1.06,1.92,1.92,0,0,0,.37.83,2,2,0,0,0,.72.55A2.43,2.43,0,0,0,144.7,72.05Z"/><path class="cls-1" d="M149.6,65.63h1.66l1.42,5.91h0l3-5.91h1.54l-4.87,9.19a9.31,9.31,0,0,1-.52.9,3.13,3.13,0,0,1-.59.7,2.3,2.3,0,0,1-.76.44,2.87,2.87,0,0,1-1,.17,4.6,4.6,0,0,1-.64,0,1.91,1.91,0,0,1-.59-.16l.34-1.31a2,2,0,0,0,.84.17,2.1,2.1,0,0,0,.59-.08,1.45,1.45,0,0,0,.43-.26,2.12,2.12,0,0,0,.33-.39,5.75,5.75,0,0,0,.3-.51l.62-1.2Z"/><path class="cls-1" d="M162.54,64.58h2.66L165,66h0a4,4,0,0,1,1.17-1.2,2.84,2.84,0,0,1,1.52-.4l.46,0a2.58,2.58,0,0,1,.43.07l-.34,2.43a4,4,0,0,0-.55-.13,3.45,3.45,0,0,0-.57,0,3.13,3.13,0,0,0-1.24.22,1.88,1.88,0,0,0-.76.59,2.79,2.79,0,0,0-.43.92,7.41,7.41,0,0,0-.24,1.16l-.5,3.6h-2.66Z"/><path class="cls-1" d="M170.14,64.58h2.66l-1.2,8.61h-2.66Zm.16-2.72a1.89,1.89,0,0,1,.22-.6,1.57,1.57,0,0,1,.4-.49,1.8,1.8,0,0,1,.54-.32,1.47,1.47,0,0,1,.62-.13,1.25,1.25,0,0,1,1,.45,1.32,1.32,0,0,1,.3,1.09,1.63,1.63,0,0,1-.2.61,1.72,1.72,0,0,1-.4.49,2.08,2.08,0,0,1-.54.32,1.47,1.47,0,0,1-.62.13,1.24,1.24,0,0,1-.58-.13,1.36,1.36,0,0,1-.45-.32,1.34,1.34,0,0,1-.25-.49A1.53,1.53,0,0,1,170.3,61.86Z"/><path class="cls-1" d="M175.31,64.58h2.55l-.16,1.17h0a2.73,2.73,0,0,1,.43-.5,3.86,3.86,0,0,1,.6-.44,3.36,3.36,0,0,1,.77-.32,3.26,3.26,0,0,1,.9-.13,3.34,3.34,0,0,1,1.59.32,1.86,1.86,0,0,1,.86.85,3.23,3.23,0,0,1,.28,1.3,9.27,9.27,0,0,1-.11,1.61l-.65,4.75h-2.66l.58-4.22c0-.24.07-.5.09-.77a1.94,1.94,0,0,0,0-.73,1,1,0,0,0-.34-.55,1.15,1.15,0,0,0-.76-.22,1.85,1.85,0,0,0-.86.19,1.59,1.59,0,0,0-.56.5,2.24,2.24,0,0,0-.32.7,6.83,6.83,0,0,0-.16.81l-.6,4.29H174.1Z"/><path class="cls-1" d="M193.84,72.47a5.88,5.88,0,0,1-1.75,3.71,5.65,5.65,0,0,1-3.93,1.27,9.65,9.65,0,0,1-2.23-.26,4.28,4.28,0,0,1-1.92-1l1.77-2.2a4.61,4.61,0,0,0,1.19.82,3.39,3.39,0,0,0,1.45.3,2.76,2.76,0,0,0,1.89-.59A2.53,2.53,0,0,0,191.1,73l.13-.83h0a3.08,3.08,0,0,1-1.27.87,3.72,3.72,0,0,1-1.32.26,4.11,4.11,0,0,1-1.69-.33,3.11,3.11,0,0,1-1.22-.92,3.53,3.53,0,0,1-.66-1.41,4.84,4.84,0,0,1,0-1.79,6,6,0,0,1,.5-1.67,5.12,5.12,0,0,1,1-1.43,4.52,4.52,0,0,1,1.37-1,3.76,3.76,0,0,1,1.7-.39,4.09,4.09,0,0,1,1,.13,3.34,3.34,0,0,1,.81.32,2.36,2.36,0,0,1,.57.43,2,2,0,0,1,.36.47h0l.17-1.13H195Zm-6.19-3.64a2,2,0,0,0,0,.81,1.66,1.66,0,0,0,.35.67,1.58,1.58,0,0,0,.6.47,1.83,1.83,0,0,0,.82.18,2.14,2.14,0,0,0,.86-.18,2.64,2.64,0,0,0,.75-.47,2.73,2.73,0,0,0,.55-.67,2,2,0,0,0,.27-.81,1.94,1.94,0,0,0-.05-.8,1.83,1.83,0,0,0-.35-.68,1.81,1.81,0,0,0-.61-.47,1.86,1.86,0,0,0-.82-.18,2.11,2.11,0,0,0-.86.18,2.82,2.82,0,0,0-.74.47,2.78,2.78,0,0,0-.55.68A2,2,0,0,0,187.65,68.83Z"/><path class="cls-1" d="M199.94,69.84h-4.36l.3-2.12h4.36Z"/><path class="cls-1" d="M207.44,67.36a1.31,1.31,0,0,0-.49-.47,1.54,1.54,0,0,0-.74-.19,2.29,2.29,0,0,0-1.64.61,2.57,2.57,0,0,0-.78,1.58,2,2,0,0,0,.32,1.57,1.78,1.78,0,0,0,1.48.61,1.61,1.61,0,0,0,.8-.2,2.44,2.44,0,0,0,.62-.46l1.49,1.84a4.16,4.16,0,0,1-1.59.9,5.87,5.87,0,0,1-1.64.26,5.08,5.08,0,0,1-1.82-.32,3.56,3.56,0,0,1-1.39-.92,3.47,3.47,0,0,1-.82-1.42,4.23,4.23,0,0,1-.11-1.86,5,5,0,0,1,.62-1.87A5.22,5.22,0,0,1,203,65.6a5.32,5.32,0,0,1,1.65-.92,5.84,5.84,0,0,1,1.91-.32,5.16,5.16,0,0,1,1.57.26,2.76,2.76,0,0,1,1.34.9Z"/><path class="cls-1" d="M209,68.89a4.87,4.87,0,0,1,.63-1.87,5.36,5.36,0,0,1,1.21-1.42,5.56,5.56,0,0,1,1.65-.92,6,6,0,0,1,1.92-.32,5.08,5.08,0,0,1,1.82.32,3.84,3.84,0,0,1,1.41.92,3.59,3.59,0,0,1,.82,1.42,4.41,4.41,0,0,1,.12,1.87,5.07,5.07,0,0,1-.64,1.86,5.25,5.25,0,0,1-1.23,1.42,5.18,5.18,0,0,1-1.64.92,6,6,0,0,1-1.92.32,5.17,5.17,0,0,1-1.83-.32,3.64,3.64,0,0,1-1.39-.92,3.71,3.71,0,0,1-.82-1.42A4.38,4.38,0,0,1,209,68.89Zm2.66,0a2,2,0,0,0,.33,1.57,1.77,1.77,0,0,0,1.48.61,2.36,2.36,0,0,0,1.66-.61,2.57,2.57,0,0,0,.78-1.57,2,2,0,0,0-.33-1.58,1.8,1.8,0,0,0-1.49-.61,2.33,2.33,0,0,0-1.65.61A2.62,2.62,0,0,0,211.69,68.89Z"/><path class="cls-1" d="M219.3,63.39h-.78l0-.41h2.06l-.06.41h-.78l-.31,2.18H219Zm1.82-.41h.75l.43,2h0l1-2H224l-.36,2.59h-.49l.31-2.17h0l-1.05,2.17H222l-.46-2.17h0l-.3,2.17h-.49Z"/><path class="cls-2" d="M40.61,41.92A14.82,14.82,0,0,0,43.09,26a15.87,15.87,0,0,1,4.27-6A21.43,21.43,0,0,1,45,47a19.62,19.62,0,0,0,29.89-5.48l.1.12,0-.08a14.88,14.88,0,1,0-2.38-4,15.87,15.87,0,0,1-4.24,6.22,21.54,21.54,0,1,1,7.2,6.9,25.81,25.81,0,0,1-35.6.22,21.49,21.49,0,1,1-.12-37.57,25.82,25.82,0,0,1,32.67-2.41A25,25,0,0,0,67.67,15a19.63,19.63,0,0,0-22.77,2h0a19.67,19.67,0,0,0-4.27,5.16h0A19.63,19.63,0,0,0,38.9,37.74a11,11,0,0,1-5,4.37,25.84,25.84,0,0,1,1.71-23.59,14.85,14.85,0,1,0,.24,27,15.32,15.32,0,0,0,2.65-1.67A15.75,15.75,0,0,0,40.61,41.92Z"/><path class="cls-1" d="M122.86,20.87H111l1.12-8.1H145l-1.12,8.1H132l-4.7,33.44h-9.15Z"/><path class="cls-1" d="M180.23,38.29a22.17,22.17,0,0,1-2.08,6.81,18,18,0,0,1-10.06,9,22.1,22.1,0,0,1-7.75,1.29,19.37,19.37,0,0,1-7.45-1.29,12.5,12.5,0,0,1-5-3.58,12.64,12.64,0,0,1-2.55-5.4,19.25,19.25,0,0,1-.15-6.81l3.58-25.52h9.15l-3.52,25.17a9.68,9.68,0,0,0,.09,3.58,6.85,6.85,0,0,0,1.35,2.85,6.63,6.63,0,0,0,2.41,1.87,7.53,7.53,0,0,0,3.25.68,8.78,8.78,0,0,0,3.43-.68,9.53,9.53,0,0,0,2.91-1.87A10.16,10.16,0,0,0,170,41.52a11.47,11.47,0,0,0,1.15-3.58l3.52-25.17h9.15Z"/><path class="cls-1" d="M214.81,23.57a7.82,7.82,0,0,0-3-2.53,10.09,10.09,0,0,0-4.4-.88,12.51,12.51,0,0,0-4.92,1,13.76,13.76,0,0,0-4.2,2.79,16,16,0,0,0-3.11,4.25,16.82,16.82,0,0,0-1.67,5.34,14.7,14.7,0,0,0,.14,5.37,11.49,11.49,0,0,0,1.88,4.23,9.05,9.05,0,0,0,3.35,2.78,9.94,9.94,0,0,0,4.49,1,11.44,11.44,0,0,0,5.16-1.17,12.3,12.3,0,0,0,4.05-3.29l6.8,5.69a19.44,19.44,0,0,1-7.45,5.46,22.42,22.42,0,0,1-8.56,1.76,23.89,23.89,0,0,1-8.78-1.53,16.29,16.29,0,0,1-10.18-11.26,22.24,22.24,0,0,1-.41-9,25.82,25.82,0,0,1,3-9,24.13,24.13,0,0,1,13.34-11.26,27.55,27.55,0,0,1,9.21-1.53,20.65,20.65,0,0,1,3.62.33,17.56,17.56,0,0,1,3.6,1,14.39,14.39,0,0,1,3.32,1.88,10.45,10.45,0,0,1,2.61,2.88Z"/><path class="cls-1" d="M220,23h-.73L219,24.9h-.32L219,23h-.74l0-.29h1.79Zm2.59,1.95h-.33l.26-1.88h0l-1,1.88h-.21L220.8,23h0l-.26,1.88h-.33l.31-2.24H221l.46,1.72.94-1.72h.49Z"/></svg>